<svg width="240" height="80" viewBox="0 0 240 80" fill="none" xmlns="http://www.w3.org/2000/svg">
  <rect width="240" height="80" rx="16" fill="#F5F7FA"/>
  <path d="M51.236 26.444c0 5.4-4.212 9.612-9.612 9.612-5.399 0-9.611-4.212-9.611-9.612s4.212-9.612 9.611-9.612c5.4 0 9.612 4.212 9.612 9.612z" fill="#0F766E"/>
  <path d="M62.188 34.958c0 5.398-4.211 9.61-9.611 9.61-5.4 0-9.612-4.212-9.612-9.61 0-5.4 4.212-9.612 9.612-9.612 5.4 0 9.611 4.212 9.611 9.612z" fill="#0EA5E9"/>
  <path d="M73.141 43.472c0 5.4-4.212 9.611-9.611 9.611s-9.612-4.212-9.612-9.611c0-5.4 4.212-9.612 9.612-9.612s9.611 4.212 9.611 9.612z" fill="#1E293B"/>
  <text x="94" y="44" fill="#0F172A" font-family="'Arial', 'Helvetica', sans-serif" font-weight="700" font-size="24">CADASTUR</text>
  <text x="94" y="62" fill="#0369A1" font-family="'Arial', 'Helvetica', sans-serif" font-weight="400" font-size="12">Ministério do Turismo</text>
</svg>
